solid zone0
 facet normal -1 0 0
  outer loop
   vertex -2.38419e-09 -0.005 -0.01225
   vertex -2.38419e-09 -0.005 -0.00725001
   vertex -2.38419e-09 0 -0.01225
  endloop
 endfacet
 facet normal -1 0 0
  outer loop
   vertex -2.38419e-09 0 -0.01225
   vertex -2.38419e-09 -0.005 -0.00725001
   vertex -2.38419e-09 0 -0.00725001
  endloop
 endfacet
 facet normal -0.707107 0 -0.707107
  outer loop
   vertex 0.0125 -0.005 -0.02475
   vertex -2.38419e-09 -0.005 -0.01225
   vertex 0.0125 3.82702e-16 -0.02475
  endloop
 endfacet
 facet normal -0.707107 0 -0.707107
  outer loop
   vertex 0.0125 3.82702e-16 -0.02475
   vertex -2.38419e-09 -0.005 -0.01225
   vertex -2.38419e-09 0 -0.01225
  endloop
 endfacet
 facet normal -0.360088 0 -0.932918
  outer loop
   vertex 0.0125 -0.005 -0.02475
   vertex 0.0125 3.82702e-16 -0.02475
   vertex 0.022371 6.84925e-16 -0.02856
  endloop
 endfacet
 facet normal -0.360088 0 -0.932918
  outer loop
   vertex 0.0125 -0.005 -0.02475
   vertex 0.022371 6.84925e-16 -0.02856
   vertex 0.022371 -0.005 -0.02856
  endloop
 endfacet
 facet normal -0.306598 0 -0.951839
  outer loop
   vertex 0.022371 -0.005 -0.02856
   vertex 0.022371 6.84925e-16 -0.02856
   vertex 0.032442 9.93265e-16 -0.031804
  endloop
 endfacet
 facet normal -0.306598 0 -0.951839
  outer loop
   vertex 0.022371 -0.005 -0.02856
   vertex 0.032442 9.93265e-16 -0.031804
   vertex 0.032442 -0.005 -0.031804
  endloop
 endfacet
 facet normal -0.252242 0 -0.967664
  outer loop
   vertex 0.032442 -0.005 -0.031804
   vertex 0.032442 9.93265e-16 -0.031804
   vertex 0.042681 1.30673e-15 -0.034473
  endloop
 endfacet
 facet normal -0.252242 0 -0.967664
  outer loop
   vertex 0.032442 -0.005 -0.031804
   vertex 0.042681 1.30673e-15 -0.034473
   vertex 0.042681 -0.005 -0.034473
  endloop
 endfacet
 facet normal -0.197043 0 -0.980395
  outer loop
   vertex 0.042681 -0.005 -0.034473
   vertex 0.042681 1.30673e-15 -0.034473
   vertex 0.053055 1.62433e-15 -0.036558
  endloop
 endfacet
 facet normal -0.197043 0 -0.980395
  outer loop
   vertex 0.042681 -0.005 -0.034473
   vertex 0.053055 1.62433e-15 -0.036558
   vertex 0.053055 -0.005 -0.036558
  endloop
 endfacet
 facet normal -0.141195 0 -0.989982
  outer loop
   vertex 0.053055 -0.005 -0.036558
   vertex 0.053055 1.62433e-15 -0.036558
   vertex 0.06353 1.94503e-15 -0.038052
  endloop
 endfacet
 facet normal -0.141195 0 -0.989982
  outer loop
   vertex 0.053055 -0.005 -0.036558
   vertex 0.06353 1.94503e-15 -0.038052
   vertex 0.06353 -0.005 -0.038052
  endloop
 endfacet
 facet normal -0.0848762 0 -0.996392
  outer loop
   vertex 0.06353 -0.005 -0.038052
   vertex 0.06353 1.94503e-15 -0.038052
   vertex 0.074072 2.26782e-15 -0.03895
  endloop
 endfacet
 facet normal -0.0848762 0 -0.996392
  outer loop
   vertex 0.06353 -0.005 -0.038052
   vertex 0.074072 2.26782e-15 -0.03895
   vertex 0.074072 -0.005 -0.03895
  endloop
 endfacet
 facet normal -0.0283539 0 -0.999598
  outer loop
   vertex 0.074072 -0.005 -0.03895
   vertex 0.074072 2.26782e-15 -0.03895
   vertex 0.084649 2.59163e-15 -0.03925
  endloop
 endfacet
 facet normal -0.0283539 0 -0.999598
  outer loop
   vertex 0.074072 -0.005 -0.03895
   vertex 0.084649 2.59163e-15 -0.03925
   vertex 0.084649 -0.005 -0.03925
  endloop
 endfacet
 facet normal 0.028354 0 -0.999598
  outer loop
   vertex 0.084649 -0.005 -0.03925
   vertex 0.084649 2.59163e-15 -0.03925
   vertex 0.095226 2.91545e-15 -0.03895
  endloop
 endfacet
 facet normal 0.028354 0 -0.999598
  outer loop
   vertex 0.084649 -0.005 -0.03925
   vertex 0.095226 2.91545e-15 -0.03895
   vertex 0.095226 -0.005 -0.03895
  endloop
 endfacet
 facet normal 0.0848758 0 -0.996392
  outer loop
   vertex 0.095226 -0.005 -0.03895
   vertex 0.095226 2.91545e-15 -0.03895
   vertex 0.105768 3.23821e-15 -0.038052
  endloop
 endfacet
 facet normal 0.0848758 0 -0.996392
  outer loop
   vertex 0.095226 -0.005 -0.03895
   vertex 0.105768 3.23821e-15 -0.038052
   vertex 0.105768 -0.005 -0.038052
  endloop
 endfacet
 facet normal 0.141196 0 -0.989982
  outer loop
   vertex 0.105768 -0.005 -0.038052
   vertex 0.105768 3.23821e-15 -0.038052
   vertex 0.116243 3.55891e-15 -0.036558
  endloop
 endfacet
 facet normal 0.141196 0 -0.989982
  outer loop
   vertex 0.105768 -0.005 -0.038052
   vertex 0.116243 3.55891e-15 -0.036558
   vertex 0.116243 -0.005 -0.036558
  endloop
 endfacet
 facet normal 0.197043 0 -0.980395
  outer loop
   vertex 0.116243 -0.005 -0.036558
   vertex 0.116243 3.55891e-15 -0.036558
   vertex 0.126617 3.87653e-15 -0.034473
  endloop
 endfacet
 facet normal 0.197043 0 -0.980395
  outer loop
   vertex 0.116243 -0.005 -0.036558
   vertex 0.126617 3.87653e-15 -0.034473
   vertex 0.126617 -0.005 -0.034473
  endloop
 endfacet
 facet normal 0.252242 0 -0.967664
  outer loop
   vertex 0.126617 -0.005 -0.034473
   vertex 0.126617 3.87653e-15 -0.034473
   vertex 0.136856 4.19001e-15 -0.031804
  endloop
 endfacet
 facet normal 0.252242 0 -0.967664
  outer loop
   vertex 0.126617 -0.005 -0.034473
   vertex 0.136856 4.19001e-15 -0.031804
   vertex 0.136856 -0.005 -0.031804
  endloop
 endfacet
 facet normal 0.306599 0 -0.951839
  outer loop
   vertex 0.136856 -0.005 -0.031804
   vertex 0.136856 4.19001e-15 -0.031804
   vertex 0.146927 4.49834e-15 -0.02856
  endloop
 endfacet
 facet normal 0.306599 0 -0.951839
  outer loop
   vertex 0.136856 -0.005 -0.031804
   vertex 0.146927 4.49834e-15 -0.02856
   vertex 0.146927 -0.005 -0.02856
  endloop
 endfacet
 facet normal 0.360088 0 -0.932918
  outer loop
   vertex 0.146927 -0.005 -0.02856
   vertex 0.146927 4.49834e-15 -0.02856
   vertex 0.156798 4.80055e-15 -0.02475
  endloop
 endfacet
 facet normal 0.360088 0 -0.932918
  outer loop
   vertex 0.146927 -0.005 -0.02856
   vertex 0.156798 4.80055e-15 -0.02475
   vertex 0.156798 -0.005 -0.02475
  endloop
 endfacet
 facet normal 0.464319 0 -0.885668
  outer loop
   vertex 0.156798 -0.005 -0.02475
   vertex 0.156798 4.80055e-15 -0.02475
   vertex 0.157685 4.82771e-15 -0.024285
  endloop
 endfacet
 facet normal 0.464319 0 -0.885668
  outer loop
   vertex 0.156798 -0.005 -0.02475
   vertex 0.157685 4.82771e-15 -0.024285
   vertex 0.157685 -0.005 -0.024285
  endloop
 endfacet
 facet normal 0.607482 0 -0.794333
  outer loop
   vertex 0.157685 -0.005 -0.024285
   vertex 0.157685 4.82771e-15 -0.024285
   vertex 0.15848 4.85205e-15 -0.023677
  endloop
 endfacet
 facet normal 0.607482 0 -0.794333
  outer loop
   vertex 0.157685 -0.005 -0.024285
   vertex 0.15848 4.85205e-15 -0.023677
   vertex 0.15848 -0.005 -0.023677
  endloop
 endfacet
 facet normal 0.734482 0 -0.678628
  outer loop
   vertex 0.15848 -0.005 -0.023677
   vertex 0.15848 4.85205e-15 -0.023677
   vertex 0.15916 4.87287e-15 -0.022941
  endloop
 endfacet
 facet normal 0.734482 0 -0.678628
  outer loop
   vertex 0.15848 -0.005 -0.023677
   vertex 0.15916 4.87287e-15 -0.022941
   vertex 0.15916 -0.005 -0.022941
  endloop
 endfacet
 facet normal 0.839344 0 -0.543601
  outer loop
   vertex 0.15916 -0.005 -0.022941
   vertex 0.15916 4.87287e-15 -0.022941
   vertex 0.159704 4.88952e-15 -0.022101
  endloop
 endfacet
 facet normal 0.839344 0 -0.543601
  outer loop
   vertex 0.15916 -0.005 -0.022941
   vertex 0.159704 4.88952e-15 -0.022101
   vertex 0.159704 -0.005 -0.022101
  endloop
 endfacet
 facet normal 0.919775 0 -0.392446
  outer loop
   vertex 0.159704 -0.005 -0.022101
   vertex 0.159704 4.88952e-15 -0.022101
   vertex 0.160097 4.90156e-15 -0.02118
  endloop
 endfacet
 facet normal 0.919775 0 -0.392446
  outer loop
   vertex 0.159704 -0.005 -0.022101
   vertex 0.160097 4.90156e-15 -0.02118
   vertex 0.160097 -0.005 -0.02118
  endloop
 endfacet
 facet normal 0.97323 0 -0.229833
  outer loop
   vertex 0.160097 -0.005 -0.02118
   vertex 0.160097 4.90156e-15 -0.02118
   vertex 0.160327 4.9086e-15 -0.020206
  endloop
 endfacet
 facet normal 0.97323 0 -0.229833
  outer loop
   vertex 0.160097 -0.005 -0.02118
   vertex 0.160327 4.9086e-15 -0.020206
   vertex 0.160327 -0.005 -0.020206
  endloop
 endfacet
 facet normal 0.998142 0 -0.060923
  outer loop
   vertex 0.160327 -0.005 -0.020206
   vertex 0.160327 4.9086e-15 -0.020206
   vertex 0.160388 4.91047e-15 -0.019207
  endloop
 endfacet
 facet normal 0.998142 0 -0.060923
  outer loop
   vertex 0.160327 -0.005 -0.020206
   vertex 0.160388 4.91047e-15 -0.019207
   vertex 0.160388 -0.005 -0.019207
  endloop
 endfacet
 facet normal 0.993948 -0 0.109853
  outer loop
   vertex 0.160388 -0.005 -0.019207
   vertex 0.160388 4.91047e-15 -0.019207
   vertex 0.160278 4.9071e-15 -0.018212
  endloop
 endfacet
 facet normal 0.993948 0 0.109853
  outer loop
   vertex 0.160388 -0.005 -0.019207
   vertex 0.160278 4.9071e-15 -0.018212
   vertex 0.160278 -0.005 -0.018212
  endloop
 endfacet
 facet normal 0.960691 -0 0.277621
  outer loop
   vertex 0.160278 -0.005 -0.018212
   vertex 0.160278 4.9071e-15 -0.018212
   vertex 0.16 4.89859e-15 -0.01725
  endloop
 endfacet
 facet normal 0.960691 0 0.277621
  outer loop
   vertex 0.160278 -0.005 -0.018212
   vertex 0.16 4.89859e-15 -0.01725
   vertex 0.16 -0.005 -0.01725
  endloop
 endfacet
 facet normal 0.899078 -0 0.437788
  outer loop
   vertex 0.16 -0.005 -0.01725
   vertex 0.16 4.89859e-15 -0.01725
   vertex 0.158827 4.86268e-15 -0.014841
  endloop
 endfacet
 facet normal 0.899078 0 0.437788
  outer loop
   vertex 0.16 -0.005 -0.01725
   vertex 0.158827 4.86268e-15 -0.014841
   vertex 0.158827 -0.005 -0.014841
  endloop
 endfacet
 facet normal 0.810793 -0 0.585333
  outer loop
   vertex 0.158827 -0.005 -0.014841
   vertex 0.158827 4.86268e-15 -0.014841
   vertex 0.157259 4.81467e-15 -0.012669
  endloop
 endfacet
 facet normal 0.810793 0 0.585333
  outer loop
   vertex 0.158827 -0.005 -0.014841
   vertex 0.157259 4.81467e-15 -0.012669
   vertex 0.157259 -0.005 -0.012669
  endloop
 endfacet
 facet normal 0.699036 -0 0.715086
  outer loop
   vertex 0.157259 -0.005 -0.012669
   vertex 0.157259 4.81467e-15 -0.012669
   vertex 0.155343 4.75601e-15 -0.010796
  endloop
 endfacet
 facet normal 0.699036 0 0.715086
  outer loop
   vertex 0.157259 -0.005 -0.012669
   vertex 0.155343 4.75601e-15 -0.010796
   vertex 0.155343 -0.005 -0.010796
  endloop
 endfacet
 facet normal 0.566026 -0 0.824387
  outer loop
   vertex 0.155343 -0.005 -0.010796
   vertex 0.155343 4.75601e-15 -0.010796
   vertex 0.153135 4.6884e-15 -0.00927999
  endloop
 endfacet
 facet normal 0.566026 0 0.824387
  outer loop
   vertex 0.155343 -0.005 -0.010796
   vertex 0.153135 4.6884e-15 -0.00927999
   vertex 0.153135 -0.005 -0.00927999
  endloop
 endfacet
 facet normal 0.416944 -0 0.908932
  outer loop
   vertex 0.153135 -0.005 -0.00927999
   vertex 0.153135 4.6884e-15 -0.00927999
   vertex 0.1507 4.61385e-15 -0.008163
  endloop
 endfacet
 facet normal 0.416944 0 0.908932
  outer loop
   vertex 0.153135 -0.005 -0.00927999
   vertex 0.1507 4.61385e-15 -0.008163
   vertex 0.1507 -0.005 -0.008163
  endloop
 endfacet
 facet normal 0.254905 -0 0.966966
  outer loop
   vertex 0.1507 -0.005 -0.008163
   vertex 0.1507 4.61385e-15 -0.008163
   vertex 0.148109 4.53453e-15 -0.00747999
  endloop
 endfacet
 facet normal 0.254905 0 0.966966
  outer loop
   vertex 0.1507 -0.005 -0.008163
   vertex 0.148109 4.53453e-15 -0.00747999
   vertex 0.148109 -0.005 -0.00747999
  endloop
 endfacet
 facet normal 0.0858495 -0 0.996308
  outer loop
   vertex 0.148109 -0.005 -0.00747999
   vertex 0.148109 4.53453e-15 -0.00747999
   vertex 0.14544 4.45281e-15 -0.00725001
  endloop
 endfacet
 facet normal 0.0858495 0 0.996308
  outer loop
   vertex 0.148109 -0.005 -0.00747999
   vertex 0.14544 4.45281e-15 -0.00725001
   vertex 0.14544 -0.005 -0.00725001
  endloop
 endfacet
 facet normal 0 0 1
  outer loop
   vertex -2.38419e-09 -0.005 -0.00725001
   vertex 0.14544 -0.005 -0.00725001
   vertex -2.38419e-09 0 -0.00725001
  endloop
 endfacet
 facet normal -0 0 1
  outer loop
   vertex -2.38419e-09 0 -0.00725001
   vertex 0.14544 -0.005 -0.00725001
   vertex 0.14544 4.45281e-15 -0.00725001
  endloop
 endfacet
 facet normal 0 -1 0
  outer loop
   vertex 0.022371 -0.005 -0.02856
   vertex 0.032442 -0.005 -0.031804
   vertex 0.14544 -0.005 -0.00725001
  endloop
 endfacet
 facet normal 0 -1 0
  outer loop
   vertex 0.095226 -0.005 -0.03895
   vertex 0.105768 -0.005 -0.038052
   vertex 0.14544 -0.005 -0.00725001
  endloop
 endfacet
 facet normal 0 -1 0
  outer loop
   vertex 0.14544 -0.005 -0.00725001
   vertex 0.105768 -0.005 -0.038052
   vertex 0.116243 -0.005 -0.036558
  endloop
 endfacet
 facet normal 0 -1 0
  outer loop
   vertex 0.14544 -0.005 -0.00725001
   vertex 0.116243 -0.005 -0.036558
   vertex 0.126617 -0.005 -0.034473
  endloop
 endfacet
 facet normal 0 -1 0
  outer loop
   vertex 0.032442 -0.005 -0.031804
   vertex 0.042681 -0.005 -0.034473
   vertex 0.14544 -0.005 -0.00725001
  endloop
 endfacet
 facet normal 0 -1 0
  outer loop
   vertex 0.14544 -0.005 -0.00725001
   vertex 0.042681 -0.005 -0.034473
   vertex 0.053055 -0.005 -0.036558
  endloop
 endfacet
 facet normal 0 -1 0
  outer loop
   vertex 0.14544 -0.005 -0.00725001
   vertex 0.053055 -0.005 -0.036558
   vertex 0.06353 -0.005 -0.038052
  endloop
 endfacet
 facet normal 0 -1 0
  outer loop
   vertex 0.157685 -0.005 -0.024285
   vertex 0.15848 -0.005 -0.023677
   vertex 0.148109 -0.005 -0.00747999
  endloop
 endfacet
 facet normal 0 -1 0
  outer loop
   vertex 0.06353 -0.005 -0.038052
   vertex 0.074072 -0.005 -0.03895
   vertex 0.14544 -0.005 -0.00725001
  endloop
 endfacet
 facet normal 0 -1 0
  outer loop
   vertex 0.14544 -0.005 -0.00725001
   vertex 0.074072 -0.005 -0.03895
   vertex 0.084649 -0.005 -0.03925
  endloop
 endfacet
 facet normal 0 -1 0
  outer loop
   vertex 0.14544 -0.005 -0.00725001
   vertex 0.084649 -0.005 -0.03925
   vertex 0.095226 -0.005 -0.03895
  endloop
 endfacet
 facet normal 0 -1 0
  outer loop
   vertex 0.126617 -0.005 -0.034473
   vertex 0.136856 -0.005 -0.031804
   vertex 0.14544 -0.005 -0.00725001
  endloop
 endfacet
 facet normal 0 -1 -0
  outer loop
   vertex 0.14544 -0.005 -0.00725001
   vertex 0.136856 -0.005 -0.031804
   vertex 0.146927 -0.005 -0.02856
  endloop
 endfacet
 facet normal 0 -1 0
  outer loop
   vertex 0.14544 -0.005 -0.00725001
   vertex 0.146927 -0.005 -0.02856
   vertex 0.148109 -0.005 -0.00747999
  endloop
 endfacet
 facet normal 0 -1 -0
  outer loop
   vertex 0.148109 -0.005 -0.00747999
   vertex 0.146927 -0.005 -0.02856
   vertex 0.156798 -0.005 -0.02475
  endloop
 endfacet
 facet normal 0 -1 0
  outer loop
   vertex 0.148109 -0.005 -0.00747999
   vertex 0.156798 -0.005 -0.02475
   vertex 0.157685 -0.005 -0.024285
  endloop
 endfacet
 facet normal 0 -1 0
  outer loop
   vertex -2.38419e-09 -0.005 -0.00725001
   vertex -2.38419e-09 -0.005 -0.01225
   vertex 0.14544 -0.005 -0.00725001
  endloop
 endfacet
 facet normal 0 -1 0
  outer loop
   vertex 0.14544 -0.005 -0.00725001
   vertex -2.38419e-09 -0.005 -0.01225
   vertex 0.0125 -0.005 -0.02475
  endloop
 endfacet
 facet normal 0 -1 0
  outer loop
   vertex 0.14544 -0.005 -0.00725001
   vertex 0.0125 -0.005 -0.02475
   vertex 0.022371 -0.005 -0.02856
  endloop
 endfacet
 facet normal 0 -1 0
  outer loop
   vertex 0.160097 -0.005 -0.02118
   vertex 0.160327 -0.005 -0.020206
   vertex 0.148109 -0.005 -0.00747999
  endloop
 endfacet
 facet normal 0 -1 0
  outer loop
   vertex 0.148109 -0.005 -0.00747999
   vertex 0.160327 -0.005 -0.020206
   vertex 0.160388 -0.005 -0.019207
  endloop
 endfacet
 facet normal 0 -1 0
  outer loop
   vertex 0.15848 -0.005 -0.023677
   vertex 0.15916 -0.005 -0.022941
   vertex 0.148109 -0.005 -0.00747999
  endloop
 endfacet
 facet normal 0 -1 0
  outer loop
   vertex 0.148109 -0.005 -0.00747999
   vertex 0.15916 -0.005 -0.022941
   vertex 0.159704 -0.005 -0.022101
  endloop
 endfacet
 facet normal 0 -1 0
  outer loop
   vertex 0.148109 -0.005 -0.00747999
   vertex 0.159704 -0.005 -0.022101
   vertex 0.160097 -0.005 -0.02118
  endloop
 endfacet
 facet normal 0 -1 0
  outer loop
   vertex 0.160388 -0.005 -0.019207
   vertex 0.160278 -0.005 -0.018212
   vertex 0.148109 -0.005 -0.00747999
  endloop
 endfacet
 facet normal 0 -1 0
  outer loop
   vertex 0.148109 -0.005 -0.00747999
   vertex 0.160278 -0.005 -0.018212
   vertex 0.16 -0.005 -0.01725
  endloop
 endfacet
 facet normal 0 -1 0
  outer loop
   vertex 0.148109 -0.005 -0.00747999
   vertex 0.16 -0.005 -0.01725
   vertex 0.1507 -0.005 -0.008163
  endloop
 endfacet
 facet normal 0 -1 0
  outer loop
   vertex 0.1507 -0.005 -0.008163
   vertex 0.16 -0.005 -0.01725
   vertex 0.158827 -0.005 -0.014841
  endloop
 endfacet
 facet normal 0 -1 0
  outer loop
   vertex 0.158827 -0.005 -0.014841
   vertex 0.157259 -0.005 -0.012669
   vertex 0.1507 -0.005 -0.008163
  endloop
 endfacet
 facet normal 0 -1 0
  outer loop
   vertex 0.1507 -0.005 -0.008163
   vertex 0.157259 -0.005 -0.012669
   vertex 0.155343 -0.005 -0.010796
  endloop
 endfacet
 facet normal 0 -1 0
  outer loop
   vertex 0.1507 -0.005 -0.008163
   vertex 0.155343 -0.005 -0.010796
   vertex 0.153135 -0.005 -0.00927999
  endloop
 endfacet
 facet normal -3.06158e-14 1 1.86887e-19
  outer loop
   vertex 0.146927 4.49834e-15 -0.02856
   vertex 0.136856 4.19001e-15 -0.031804
   vertex 0.14544 4.45281e-15 -0.00725001
  endloop
 endfacet
 facet normal -3.06163e-14 1 3.82235e-19
  outer loop
   vertex 0.14544 4.45281e-15 -0.00725001
   vertex 0.136856 4.19001e-15 -0.031804
   vertex 0.126617 3.87653e-15 -0.034473
  endloop
 endfacet
 facet normal -3.06171e-14 1 9.03304e-19
  outer loop
   vertex 0.14544 4.45281e-15 -0.00725001
   vertex 0.126617 3.87653e-15 -0.034473
   vertex 0.116243 3.55891e-15 -0.036558
  endloop
 endfacet
 facet normal -3.06158e-14 1 -3.95166e-19
  outer loop
   vertex 0.116243 3.55891e-15 -0.036558
   vertex 0.105768 3.23821e-15 -0.038052
   vertex 0.14544 4.45281e-15 -0.00725001
  endloop
 endfacet
 facet normal -3.06165e-14 1 5.737e-19
  outer loop
   vertex 0.14544 4.45281e-15 -0.00725001
   vertex 0.105768 3.23821e-15 -0.038052
   vertex 0.095226 2.91545e-15 -0.03895
  endloop
 endfacet
 facet normal -3.06156e-14 1 -9.75106e-19
  outer loop
   vertex 0.14544 4.45281e-15 -0.00725001
   vertex 0.095226 2.91545e-15 -0.03895
   vertex 0.084649 2.59163e-15 -0.03925
  endloop
 endfacet
 facet normal -3.0616e-14 1 1.71647e-19
  outer loop
   vertex 0.146927 4.49834e-15 -0.02856
   vertex 0.14544 4.45281e-15 -0.00725001
   vertex 0.156798 4.80055e-15 -0.02475
  endloop
 endfacet
 facet normal -3.06179e-14 1 -1.07153e-18
  outer loop
   vertex 0.156798 4.80055e-15 -0.02475
   vertex 0.14544 4.45281e-15 -0.00725001
   vertex 0.148109 4.53453e-15 -0.00747999
  endloop
 endfacet
 facet normal -3.06199e-14 1 -2.08057e-18
  outer loop
   vertex 0.156798 4.80055e-15 -0.02475
   vertex 0.148109 4.53453e-15 -0.00747999
   vertex 0.157685 4.82771e-15 -0.024285
  endloop
 endfacet
 facet normal -3.06154e-14 1 -2.51024e-18
  outer loop
   vertex 0.032442 9.93265e-16 -0.031804
   vertex 0.14544 4.45281e-15 -0.00725001
   vertex 0.042681 1.30673e-15 -0.034473
  endloop
 endfacet
 facet normal -3.06155e-14 1 -2.25652e-18
  outer loop
   vertex 0.042681 1.30673e-15 -0.034473
   vertex 0.14544 4.45281e-15 -0.00725001
   vertex 0.053055 1.62433e-15 -0.036558
  endloop
 endfacet
 facet normal -3.06146e-14 1 -2.84647e-18
  outer loop
   vertex 0.084649 2.59163e-15 -0.03925
   vertex 0.074072 2.26782e-15 -0.03895
   vertex 0.14544 4.45281e-15 -0.00725001
  endloop
 endfacet
 facet normal -3.06189e-14 1 6.94255e-18
  outer loop
   vertex 0.14544 4.45281e-15 -0.00725001
   vertex 0.074072 2.26782e-15 -0.03895
   vertex 0.06353 1.94503e-15 -0.038052
  endloop
 endfacet
 facet normal -3.06158e-14 1 -1.30123e-18
  outer loop
   vertex 0.14544 4.45281e-15 -0.00725001
   vertex 0.06353 1.94503e-15 -0.038052
   vertex 0.053055 1.62433e-15 -0.036558
  endloop
 endfacet
 facet normal -3.06162e-14 1 0
  outer loop
   vertex -2.38419e-09 0 -0.01225
   vertex -2.38419e-09 0 -0.00725001
   vertex 0.0125 3.82702e-16 -0.02475
  endloop
 endfacet
 facet normal -3.06161e-14 1 4.04372e-20
  outer loop
   vertex 0.0125 3.82702e-16 -0.02475
   vertex -2.38419e-09 0 -0.00725001
   vertex 0.14544 4.45281e-15 -0.00725001
  endloop
 endfacet
 facet normal -3.06164e-14 1 2.15081e-18
  outer loop
   vertex 0.0125 3.82702e-16 -0.02475
   vertex 0.14544 4.45281e-15 -0.00725001
   vertex 0.022371 6.84925e-16 -0.02856
  endloop
 endfacet
 facet normal -3.06162e-14 1 1.13199e-18
  outer loop
   vertex 0.022371 6.84925e-16 -0.02856
   vertex 0.14544 4.45281e-15 -0.00725001
   vertex 0.032442 9.93265e-16 -0.031804
  endloop
 endfacet
 facet normal -3.06192e-14 1 -2.80335e-18
  outer loop
   vertex 0.160388 4.91047e-15 -0.019207
   vertex 0.160327 4.9086e-15 -0.020206
   vertex 0.148109 4.53453e-15 -0.00747999
  endloop
 endfacet
 facet normal -3.06145e-14 1 1.711e-18
  outer loop
   vertex 0.148109 4.53453e-15 -0.00747999
   vertex 0.160327 4.9086e-15 -0.020206
   vertex 0.160097 4.90156e-15 -0.02118
  endloop
 endfacet
 facet normal -3.06234e-14 1 -6.02913e-18
  outer loop
   vertex 0.148109 4.53453e-15 -0.00747999
   vertex 0.160097 4.90156e-15 -0.02118
   vertex 0.159704 4.88952e-15 -0.022101
  endloop
 endfacet
 facet normal -3.06115e-14 1 3.41407e-18
  outer loop
   vertex 0.159704 4.88952e-15 -0.022101
   vertex 0.15916 4.87287e-15 -0.022941
   vertex 0.148109 4.53453e-15 -0.00747999
  endloop
 endfacet
 facet normal -3.06163e-14 1 -7.26315e-20
  outer loop
   vertex 0.148109 4.53453e-15 -0.00747999
   vertex 0.15916 4.87287e-15 -0.022941
   vertex 0.15848 4.85205e-15 -0.023677
  endloop
 endfacet
 facet normal -3.06161e-14 1 1.06934e-19
  outer loop
   vertex 0.148109 4.53453e-15 -0.00747999
   vertex 0.15848 4.85205e-15 -0.023677
   vertex 0.157685 4.82771e-15 -0.024285
  endloop
 endfacet
 facet normal -3.06208e-14 1 -4.86544e-18
  outer loop
   vertex 0.157259 4.81467e-15 -0.012669
   vertex 0.1507 4.61385e-15 -0.008163
   vertex 0.155343 4.75601e-15 -0.010796
  endloop
 endfacet
 facet normal -3.06065e-14 1 2.03534e-17
  outer loop
   vertex 0.155343 4.75601e-15 -0.010796
   vertex 0.1507 4.61385e-15 -0.008163
   vertex 0.153135 4.6884e-15 -0.00927999
  endloop
 endfacet
 facet normal -3.06164e-14 1 1.41341e-18
  outer loop
   vertex 0.157259 4.81467e-15 -0.012669
   vertex 0.158827 4.86268e-15 -0.014841
   vertex 0.1507 4.61385e-15 -0.008163
  endloop
 endfacet
 facet normal -3.06205e-14 1 -3.51938e-18
  outer loop
   vertex 0.1507 4.61385e-15 -0.008163
   vertex 0.158827 4.86268e-15 -0.014841
   vertex 0.16 4.89859e-15 -0.01725
  endloop
 endfacet
 facet normal -3.06131e-14 1 4.01821e-18
  outer loop
   vertex 0.1507 4.61385e-15 -0.008163
   vertex 0.16 4.89859e-15 -0.01725
   vertex 0.148109 4.53453e-15 -0.00747999
  endloop
 endfacet
 facet normal -3.06182e-14 1 -2.08859e-18
  outer loop
   vertex 0.148109 4.53453e-15 -0.00747999
   vertex 0.16 4.89859e-15 -0.01725
   vertex 0.160278 4.9071e-15 -0.018212
  endloop
 endfacet
 facet normal -3.06133e-14 1 3.37132e-18
  outer loop
   vertex 0.148109 4.53453e-15 -0.00747999
   vertex 0.160278 4.9071e-15 -0.018212
   vertex 0.160388 4.91047e-15 -0.019207
  endloop
 endfacet
endsolid zone0
